<svg id="Layer_1" data-name="Layer 1" xmlns="http://www.w3.org/2000/svg" viewBox="0 0 268.04 113.94"><defs><style>.cls-1{opacity:0.6;}.cls-2{fill:#fff;}.cls-3{fill:#08c7d3;}</style></defs><title>Logo with signature_White</title><g class="cls-1"><path class="cls-2" d="M1.43,96.85H4.24v17.89H1.43Z" transform="translate(-1.39 -1)"/><path class="cls-2" d="M9.31,101.78v13H6.78V96.85h3.53l2.89,10.71V96.85h2.5v17.89H12.81Z" transform="translate(-1.39 -1)"/><path class="cls-2" d="M17.41,96.85h8.68v2.56H23.16v15.33H20.34V99.41H17.41Z" transform="translate(-1.39 -1)"/><path class="cls-2" d="M30.65,104.39h3.86v2.55H30.65v5.24h4.86v2.56H27.84V96.85h7.67v2.56H30.65Z" transform="translate(-1.39 -1)"/><path class="cls-2" d="M43.64,114.74c0-.12-.07-.23-.11-.34s-.06-.23-.1-.38,0-.35,0-.59v-3.7A2.78,2.78,0,0,0,43,108a1.76,1.76,0,0,0-1.41-.51h-1v7.29H37.76V96.85H42a4.22,4.22,0,0,1,3.17,1,4.28,4.28,0,0,1,1,3.09v1.41c0,1.84-.62,3-1.84,3.63a2.44,2.44,0,0,1,1.45,1.43,6.19,6.19,0,0,1,.41,2.38v2.75c0,.45,0,.84.05,1.18a4,4,0,0,0,.26,1ZM40.57,99.41v5.49h1.1a1.74,1.74,0,0,0,1.23-.41,2,2,0,0,0,.45-1.48v-1.76A2.21,2.21,0,0,0,43,99.84a1.27,1.27,0,0,0-1.08-.43Z" transform="translate(-1.39 -1)"/><path class="cls-2" d="M57.65,114.74H54.81l-.49-3.25H50.88l-.49,3.25H47.81l2.86-17.89h4.11Zm-6.42-5.68h2.71l-1.35-9Z" transform="translate(-1.39 -1)"/><path class="cls-2" d="M67.59,108.07v2.37a4.81,4.81,0,0,1-1.07,3.35,4,4,0,0,1-3.12,1.15,4.06,4.06,0,0,1-3.14-1.15,4.86,4.86,0,0,1-1-3.35v-9.3a4.77,4.77,0,0,1,1-3.32,4,4,0,0,1,3.14-1.17,4,4,0,0,1,3.12,1.17,4.73,4.73,0,0,1,1.07,3.32v1.74H64.93V101a1.83,1.83,0,0,0-.4-1.35,1.39,1.39,0,0,0-1.05-.41,1.48,1.48,0,0,0-1.08.41A1.93,1.93,0,0,0,62,101v9.66A1.94,1.94,0,0,0,62.4,112a1.55,1.55,0,0,0,1.08.38,1.45,1.45,0,0,0,1.05-.38,1.84,1.84,0,0,0,.4-1.36v-2.55Z" transform="translate(-1.39 -1)"/><path class="cls-2" d="M69,96.85h8.69v2.56H74.74v15.33H71.93V99.41H69Z" transform="translate(-1.39 -1)"/><path class="cls-2" d="M79.43,96.85h2.81v17.89H79.43Z" transform="translate(-1.39 -1)"/><path class="cls-2" d="M89,111.44l2.15-14.59h2.58L91,114.74H86.82L84.06,96.85H86.9Z" transform="translate(-1.39 -1)"/><path class="cls-2" d="M98.4,104.39h3.86v2.55H98.4v5.24h4.86v2.56H95.59V96.85h7.67v2.56H98.4Z" transform="translate(-1.39 -1)"/><path class="cls-2" d="M115.94,109.55l1.92-12.7h3.91v17.89h-2.66V101.91l-1.94,12.83h-2.66l-2.09-12.65v12.65H110V96.85h3.91Z" transform="translate(-1.39 -1)"/><path class="cls-2" d="M133.42,114.74h-2.84l-.48-3.25h-3.45l-.49,3.25h-2.58l2.86-17.89h4.12ZM127,109.06h2.71l-1.35-9Z" transform="translate(-1.39 -1)"/><path class="cls-2" d="M135.24,96.85h2.81v15.33h4.62v2.56h-7.43Z" transform="translate(-1.39 -1)"/><path class="cls-2" d="M150.22,105.21l-1,9.53h-3.85l-2-17.89h2.74l1.5,14.1,1.36-14.1h2.71l1.4,14.21,1.46-14.21H157l-2,17.89h-3.73Z" transform="translate(-1.39 -1)"/><path class="cls-2" d="M167.61,114.74h-2.84l-.48-3.25h-3.45l-.49,3.25h-2.58l2.87-17.89h4.11Zm-6.41-5.68h2.71l-1.36-9Z" transform="translate(-1.39 -1)"/><path class="cls-2" d="M175.31,114.74c0-.12-.07-.23-.1-.34a3.72,3.72,0,0,1-.11-.38c0-.15,0-.35,0-.59v-3.7a2.78,2.78,0,0,0-.43-1.77,1.76,1.76,0,0,0-1.41-.51h-1v7.29h-2.81V96.85h4.24a4.22,4.22,0,0,1,3.17,1,4.28,4.28,0,0,1,1,3.09v1.41c0,1.84-.62,3-1.84,3.63a2.44,2.44,0,0,1,1.45,1.43,6,6,0,0,1,.41,2.38v2.75c0,.45,0,.84,0,1.18a4,4,0,0,0,.26,1Zm-3.07-15.33v5.49h1.1a1.74,1.74,0,0,0,1.23-.41A2,2,0,0,0,175,103v-1.76a2.21,2.21,0,0,0-.36-1.41,1.26,1.26,0,0,0-1.07-.43Z" transform="translate(-1.39 -1)"/><path class="cls-2" d="M183,104.39h3.86v2.55H183v5.24h4.86v2.56h-7.67V96.85h7.67v2.56H183Z" transform="translate(-1.39 -1)"/><path class="cls-2" d="M203.71,114.74h-2.83l-.49-3.25h-3.45l-.48,3.25h-2.58l2.86-17.89h4.11Zm-6.41-5.68H200l-1.36-9Z" transform="translate(-1.39 -1)"/><path class="cls-2" d="M208,101.78v13h-2.53V96.85H209l2.89,10.71V96.85h2.5v17.89h-2.88Z" transform="translate(-1.39 -1)"/><path class="cls-2" d="M226,114.74h-2.83l-.49-3.25h-3.45l-.48,3.25h-2.58l2.86-17.89h4.11Zm-6.41-5.68h2.71L221,100Z" transform="translate(-1.39 -1)"/><path class="cls-2" d="M227.86,96.85h2.81v15.33h4.63v2.56h-7.44Z" transform="translate(-1.39 -1)"/><path class="cls-2" d="M238.09,108.81l-3.55-12h2.94l2.14,8.15,2.15-8.15h2.68l-3.55,12v5.93h-2.81Z" transform="translate(-1.39 -1)"/><path class="cls-2" d="M245.57,101.14a4.87,4.87,0,0,1,1-3.32,4,4,0,0,1,3.12-1.17,3.88,3.88,0,0,1,3.09,1.17,4.77,4.77,0,0,1,1,3.32v.57h-2.66V101a1.88,1.88,0,0,0-.39-1.35,1.27,1.27,0,0,0-1-.41,1.36,1.36,0,0,0-1,.41,2,2,0,0,0-.36,1.35,3.17,3.17,0,0,0,.41,1.64,7.26,7.26,0,0,0,1,1.33c.41.41.84.82,1.3,1.25a11.31,11.31,0,0,1,1.33,1.35,7,7,0,0,1,1,1.69,5.43,5.43,0,0,1,.41,2.22,4.81,4.81,0,0,1-1.07,3.35,4,4,0,0,1-3.12,1.15,4.06,4.06,0,0,1-3.14-1.15,4.86,4.86,0,0,1-1-3.35v-1.09h2.66v1.27a1.94,1.94,0,0,0,.38,1.36,1.52,1.52,0,0,0,1.07.38,1.42,1.42,0,0,0,1.05-.38,1.84,1.84,0,0,0,.41-1.36,3.13,3.13,0,0,0-.41-1.61,6.37,6.37,0,0,0-1-1.33c-.41-.42-.85-.84-1.33-1.25a13.15,13.15,0,0,1-1.3-1.38,6.73,6.73,0,0,1-1-1.68A5.45,5.45,0,0,1,245.57,101.14Z" transform="translate(-1.39 -1)"/><path class="cls-2" d="M256,96.85h2.81v17.89H256Z" transform="translate(-1.39 -1)"/><path class="cls-2" d="M261,101.14a4.87,4.87,0,0,1,1-3.32,4,4,0,0,1,3.12-1.17,3.88,3.88,0,0,1,3.09,1.17,4.77,4.77,0,0,1,1.05,3.32v.57h-2.66V101a1.93,1.93,0,0,0-.38-1.35,1.3,1.3,0,0,0-1-.41,1.36,1.36,0,0,0-1.05.41,2,2,0,0,0-.36,1.35,3.27,3.27,0,0,0,.41,1.64,7.26,7.26,0,0,0,1,1.33c.41.41.85.82,1.3,1.25a10.6,10.6,0,0,1,1.33,1.35,7.34,7.34,0,0,1,1,1.69,5.6,5.6,0,0,1,.41,2.22,4.77,4.77,0,0,1-1.08,3.35,4,4,0,0,1-3.12,1.15,4.08,4.08,0,0,1-3.14-1.15,4.86,4.86,0,0,1-1.05-3.35v-1.09h2.66v1.27A1.89,1.89,0,0,0,264,112a1.52,1.52,0,0,0,1.07.38,1.45,1.45,0,0,0,1.05-.38,1.84,1.84,0,0,0,.4-1.36,3.13,3.13,0,0,0-.4-1.61,6.79,6.79,0,0,0-1-1.33,17.89,17.89,0,0,0-1.33-1.25,14.28,14.28,0,0,1-1.3-1.38,6.73,6.73,0,0,1-1-1.68A5.62,5.62,0,0,1,261,101.14Z" transform="translate(-1.39 -1)"/></g><path class="cls-3" d="M118.19,1.25a5.21,5.21,0,0,0-3.11,2.68c-.51,1.12-.54,2.54-.54,31.21,0,16.54.08,30,.23,30l3-1.65,2.76-1.57.17-54.06,24.25,14L169.54,36c.22.15-.52.69-2.09,1.57a10.17,10.17,0,0,0-2.42,1.6A15.38,15.38,0,0,0,167.91,41l2.88,1.63,1.26-.66c3.45-1.85,4.42-3,4.62-5.19a4.92,4.92,0,0,0-1.32-4.25c-1-.94-53.11-31-54.34-31.35A4.39,4.39,0,0,0,118.19,1.25Z" transform="translate(-1.39 -1)"/><path class="cls-3" d="M103.85,9.47A5.21,5.21,0,0,0,101,12.75c-.08.51-.11,15-.08,32.17L101,76.19l.8,1a4.73,4.73,0,0,0,4.19,2c1.54,0,1.8-.14,27.47-14.95,14.24-8.21,25.85-15.06,25.79-15.2-.14-.49-5.42-3.37-5.88-3.25-.25.08-10.78,6.1-23.41,13.4L107,72.51l-.08-14.26c0-7.85,0-20.6,0-28.36L107,15.8l2.2,1.28a14,14,0,0,0,2.51,1.29c.17,0,.28-1.23.28-3.37V11.64l-2.16-1.26C107.24,8.9,105.58,8.67,103.85,9.47Z" transform="translate(-1.39 -1)"/><path class="cls-3" d="M123.1,21.73V25.1l23.39,13.49,23.36,13.52L120.67,80.49l-.08-2.82a11.17,11.17,0,0,0-.26-2.82c-.08,0-1.43.74-3,1.62l-2.8,1.63v2.57a7.63,7.63,0,0,0,.6,3.82A5,5,0,0,0,121,87.06c.68-.2,13.15-7.25,27.67-15.64C168.42,60,175.27,55.93,175.81,55.19a4.32,4.32,0,0,0,.86-2.74,4.37,4.37,0,0,0-1.43-4.05c-.71-.68-51.43-30-51.88-30A10.42,10.42,0,0,0,123.1,21.73Z" transform="translate(-1.39 -1)"/><path class="cls-2" d="M11.28,18.2c0,.17-9.67,50.71-9.84,51.46s-.12.62,2.71.62A23.94,23.94,0,0,0,7,70.2S7.46,67.86,8,65s1-5.13,1-5.19,2.88-.11,6.39-.11c5.84,0,6.42.06,6.56.48s.54,2.66,1.05,5.28l.89,4.79h3c2.6,0,3,0,3-.48,0-.26-2.17-11.87-4.85-25.82s-4.85-25.44-4.85-25.61-1.65-.29-4.42-.29A43.18,43.18,0,0,0,11.28,18.2Zm7,22.22c1.48,7.67,2.71,14,2.71,14.06s-2.51.11-5.56.11a51.56,51.56,0,0,1-5.57-.14C9.85,54.11,15,27,15.19,26.5c.08-.32.23-.46.25-.29S16.76,32.77,18.27,40.42Z" transform="translate(-1.39 -1)"/><path class="cls-2" d="M34.1,44.18v26.1h5.42l.06-20.51.08-20.53,4.82,15.31C47.16,53,50.07,62.21,51,65.06l1.68,5.22h6.25V18.08H53.5l-.06,18.09-.09,18.08-4-12.46c-2.2-6.85-4.79-15-5.79-18.09l-1.83-5.62H34.1Z" transform="translate(-1.39 -1)"/><path class="cls-2" d="M62.91,18.34c0,.14,2.45,7.64,5.42,16.69l5.42,16.43V70.28h6V51.94L85.19,35.4c3-9.1,5.5-16.72,5.59-16.95s-.34-.37-2.8-.31l-3,.09-4,12.46-4,12.47L73.84,33c-1.8-5.59-3.57-11.24-4-12.55l-.71-2.34H66A9.68,9.68,0,0,0,62.91,18.34Z" transform="translate(-1.39 -1)"/><path class="cls-2" d="M186.71,44.15V70.28h6V48l3.25.14c2.88.11,3.42.2,4.91,1a4.1,4.1,0,0,1,2.39,2.25c.69,1.37.72,1.63.89,9.13a70.82,70.82,0,0,0,.51,8.79l.34,1h3.11a22.57,22.57,0,0,0,3.14-.11,9.78,9.78,0,0,0-.46-1.2c-.4-.91-.51-2.68-.68-9.24-.17-7.3-.26-8.27-.8-9.64a7.9,7.9,0,0,0-3.51-4.31l-1.42-.8,1.28-.77a8.66,8.66,0,0,0,3.65-4.45c.86-2.17,1.08-10.78.4-13.78-.86-3.68-2.62-5.93-5.53-7.1-1.54-.6-2.12-.65-9.53-.74l-7.93-.09Zm14.43-20c2.48,1.31,3.06,3.25,2.91,9.75-.08,4.11-.17,4.68-.74,5.79-1,1.94-2.91,2.69-7.24,2.86l-3.37.14V23.45l3.79.11C199.26,23.64,200.49,23.79,201.14,24.16Z" transform="translate(-1.39 -1)"/><path class="cls-2" d="M215.83,39.39c0,23.79,0,23.42,2,26.73,1.88,3.11,4.39,4.42,8.84,4.68,6.05.28,9.67-1.89,11.67-7l.74-1.91L239.14,40l.08-21.88h-5.73V39c0,13.12-.11,21.28-.29,21.94a5.23,5.23,0,0,1-4.67,4.19c-2.31.2-3.48-.14-4.77-1.28-2-1.83-2-1.26-2-24.82V18.08h-6Z" transform="translate(-1.39 -1)"/><path class="cls-2" d="M244.61,44.18v26.1H250l.06-20.45.08-20.45,6.45,20.39,6.45,20.37,3.16.09,3.2.08V18.08H264L264,36.22l-.08,18.17L259.05,39.3c-2.66-8.3-5.28-16.45-5.79-18.17l-1-3.05h-7.68Z" transform="translate(-1.39 -1)"/></svg>